<?xml version="1.0" encoding="UTF-8" standalone="no"?>
<svg
   xmlns:dc="http://purl.org/dc/elements/1.1/"
   xmlns:cc="http://creativecommons.org/ns#"
   xmlns:rdf="http://www.w3.org/1999/02/22-rdf-syntax-ns#"
   xmlns:svg="http://www.w3.org/2000/svg"
   xmlns="http://www.w3.org/2000/svg"
   xmlns:sodipodi="http://sodipodi.sourceforge.net/DTD/sodipodi-0.dtd"
   xmlns:inkscape="http://www.inkscape.org/namespaces/inkscape"
   inkscape:version="1.0 (4035a4fb49, 2020-05-01)"
   sodipodi:docname="logo.svg"
   xml:space="preserve"
   style="enable-background:new 0 0 48.839 48.839;"
   viewBox="0 0 48.839 48.839"
   y="0px"
   x="0px"
   id="Capa_1"
   version="1.1"><metadata
   id="metadata41"><rdf:RDF><cc:Work
       rdf:about=""><dc:format>image/svg+xml</dc:format><dc:type
         rdf:resource="http://purl.org/dc/dcmitype/StillImage" /></cc:Work></rdf:RDF></metadata><defs
   id="defs39" /><sodipodi:namedview
   inkscape:current-layer="Capa_1"
   inkscape:window-maximized="1"
   inkscape:window-y="-8"
   inkscape:window-x="-8"
   inkscape:cy="24.4195"
   inkscape:cx="24.4195"
   inkscape:zoom="15.049448"
   showgrid="false"
   id="namedview37"
   inkscape:window-height="1017"
   inkscape:window-width="1920"
   inkscape:pageshadow="2"
   inkscape:pageopacity="0"
   guidetolerance="10"
   gridtolerance="10"
   objecttolerance="10"
   borderopacity="1"
   bordercolor="#666666"
   pagecolor="#ffffff" />
<g
   style="fill:#fffdfd;fill-opacity:1"
   transform="matrix(0.86040898,0.29017648,-0.29017648,0.86040898,10.029601,-4.4081992)"
   id="g4">
	<path
   id="path2"
   d="m 39.041,36.843 c 2.054,3.234 3.022,4.951 3.022,6.742 0,3.537 -2.627,5.252 -6.166,5.252 -1.56,0 -2.567,-0.002 -5.112,-1.326 0,0 -1.649,-1.509 -5.508,-1.354 -3.895,-0.154 -5.545,1.373 -5.545,1.373 -2.545,1.323 -3.516,1.309 -5.074,1.309 -3.539,0 -6.168,-1.713 -6.168,-5.252 0,-1.791 0.971,-3.506 3.024,-6.742 0,0 3.881,-6.445 7.244,-9.477 2.43,-2.188 5.973,-2.18 5.973,-2.18 h 1.093 v -10e-4 c 0,0 3.698,-0.009 5.976,2.181 3.259,3.142 7.241,9.476 7.241,9.475 z M 16.631,20.878 c 3.7,0 6.699,-4.674 6.699,-10.439 C 23.33,4.674 20.331,0 16.631,0 c -3.7,0 -6.699,4.674 -6.699,10.439 0,5.765 2.999,10.439 6.699,10.439 z m -6.42,10.11 c 2.727,-1.259 3.349,-5.723 1.388,-9.971 -1.961,-4.248 -5.761,-6.672 -8.488,-5.414 -2.727,1.258 -3.348,5.723 -1.388,9.971 1.961,4.248 5.761,6.671 8.488,5.414 z m 21.995,-10.11 c 3.7,0 6.7,-4.674 6.7,-10.439 0,-5.765 -3,-10.439 -6.7,-10.439 -3.7,0 -6.699,4.674 -6.699,10.439 0,5.765 2.999,10.439 6.699,10.439 z m 13.521,-5.276 c -2.728,-1.259 -6.527,1.165 -8.488,5.414 -1.961,4.249 -1.339,8.713 1.389,9.972 2.728,1.258 6.527,-1.166 8.488,-5.414 1.961,-4.248 1.339,-8.713 -1.389,-9.972 z"
   style="fill:#fffdfd;fill-opacity:1" />
</g>
<g
   id="g6">
</g>
<g
   id="g8">
</g>
<g
   id="g10">
</g>
<g
   id="g12">
</g>
<g
   id="g14">
</g>
<g
   id="g16">
</g>
<g
   id="g18">
</g>
<g
   id="g20">
</g>
<g
   id="g22">
</g>
<g
   id="g24">
</g>
<g
   id="g26">
</g>
<g
   id="g28">
</g>
<g
   id="g30">
</g>
<g
   id="g32">
</g>
<g
   id="g34">
</g>
</svg>
